<svg viewBox="0 0 236 70" xmlns="http://www.w3.org/2000/svg"><g fill-rule="nonzero" fill="none"><path d="M41.9 26.5L16.3.9l-5.2 5.2 9.6 9.6L0 36.4 25.6 62l5.2-5.2-9.6-9.6 20.7-20.7zM11.5 37.3l15.4-15.4 3.2 3.2-15.4 15.4-3.2-3.2z" fill="#3863A0"/><g fill="#303030"><path d="M74.6 42.4v-2.7c-1.4 1.9-3.6 3.2-6.2 3.2-4.8 0-8.1-3.6-8.1-9.6 0-5.9 3.4-9.6 8.1-9.6 2.5 0 4.7 1.2 6.2 3.2v-9.7h2.8v25.3h-2.8v-.1zm0-5v-8.3c-1-1.6-3.2-3-5.5-3-3.7 0-5.9 3-5.9 7.1s2.2 7 5.9 7c2.3.1 4.5-1.2 5.5-2.8zM81.1 33.2c0-5.3 3.8-9.6 9-9.6 5.5 0 8.8 4.3 8.8 9.8v.7H84.1c.2 3.4 2.6 6.3 6.6 6.3 2.1 0 4.2-.8 5.7-2.3l1.4 1.9c-1.9 1.8-4.3 2.8-7.3 2.8-5.5 0-9.4-3.9-9.4-9.6zm9-7.2c-3.9 0-5.8 3.3-6 6.1h12c0-2.8-1.8-6.1-6-6.1zM107.4 42.4l-7.6-18.3h3.1l6.1 15 6.1-15h3.1l-7.6 18.3h-3.2zM119.1 33.2c0-5.3 3.8-9.6 9-9.6 5.5 0 8.8 4.3 8.8 9.8v.7h-14.8c.2 3.4 2.6 6.3 6.6 6.3 2.1 0 4.2-.8 5.7-2.3l1.4 1.9c-1.9 1.8-4.3 2.8-7.3 2.8-5.5 0-9.4-3.9-9.4-9.6zm9-7.2c-3.9 0-5.8 3.3-6 6.1h12c0-2.8-1.9-6.1-6-6.1zM140.5 42.4V17.1h2.8v25.3h-2.8zM147.1 33.2c0-5.3 3.5-9.6 9.1-9.6s9.1 4.3 9.1 9.6-3.5 9.6-9.1 9.6-9.1-4.3-9.1-9.6zm15.1 0c0-3.7-2.2-7-6.1-7-3.9 0-6.1 3.3-6.1 7s2.2 7.1 6.1 7.1c3.9 0 6.1-3.4 6.1-7.1zM171.7 39.6v9.7h-2.8V24.1h2.8v2.7c1.3-1.9 3.6-3.2 6.2-3.2 4.8 0 8.1 3.6 8.1 9.6 0 5.9-3.3 9.6-8.1 9.6-2.6 0-4.7-1.2-6.2-3.2zm11.3-6.4c0-4.1-2.2-7-5.9-7-2.2 0-4.5 1.3-5.5 2.9v8.3c1 1.6 3.2 3 5.5 3 3.7-.1 5.9-3.2 5.9-7.2zM188.5 33.2c0-5.3 3.8-9.6 9-9.6 5.5 0 8.8 4.3 8.8 9.8v.7h-14.8c.2 3.4 2.6 6.3 6.6 6.3 2.1 0 4.2-.8 5.7-2.3l1.4 1.9c-1.9 1.8-4.3 2.8-7.3 2.8-5.5 0-9.4-3.9-9.4-9.6zm9-7.2c-3.9 0-5.8 3.3-6 6.1h12c-.1-2.8-1.9-6.1-6-6.1zM209.9 42.4V24.1h2.8V27c1.5-1.9 3.6-3.3 6.1-3.3v2.9c-.3 0-.7-.1-1.1-.1-1.8 0-4.2 1.4-5 2.9v13h-2.8zM219.9 39.9l1.4-2c1.2 1.4 3.5 2.6 6 2.6 2.8 0 4.4-1.3 4.4-3.1 0-4.4-11.3-1.7-11.3-8.5 0-2.9 2.4-5.3 6.8-5.3 3.1 0 5.3 1.2 6.8 2.7l-1.3 2c-1.1-1.3-3.1-2.3-5.5-2.3-2.5 0-4.1 1.2-4.1 2.9 0 4 11.3 1.4 11.3 8.5 0 3.1-2.5 5.5-7.2 5.5-2.9-.1-5.4-1-7.3-3z"/></g><path d="M51 6.25V1h-.978l-1.454 3.818L47.113 1h-.978v5.25h.637V1.907l1.705 4.343h.182l1.704-4.343V6.25H51zm-5.595-4.63V1H42v.62h1.389v4.63h.627V1.62h1.39z" fill="#3863A0"/></g></svg>