<svg id="d8c3b1c7-d967-471a-9674-092eb66e650e" data-name="Layer 1" xmlns="http://www.w3.org/2000/svg" xmlns:xlink="http://www.w3.org/1999/xlink" viewBox="0 0 218.76 47.3"><defs><clipPath id="f4e40146-054b-4104-914a-a0553b03f1e0" transform="translate(-1.14 -2.09)"><ellipse cx="31.06" cy="28.68" rx="0.35" ry="0.35" style="fill:none"/></clipPath><clipPath id="758cb4b6-0d72-4694-9456-ee675d7db17f" transform="translate(-1.14 -2.09)"><rect x="-47.54" y="-37.18" width="205.1" height="113.95" style="fill:none"/></clipPath><clipPath id="d3bf6553-3972-40af-b425-95173036e2ed" transform="translate(-1.14 -2.09)"><circle cx="18.59" cy="45.53" r="0.27" style="fill:none"/></clipPath><clipPath id="45e75d32-c452-4558-99bf-f967ae4c5540" transform="translate(-1.14 -2.09)"><ellipse cx="19.74" cy="7.56" rx="0.71" ry="0.7" style="fill:none"/></clipPath><clipPath id="8d7e81cd-e8b1-483a-a16a-a79c91318e23" transform="translate(-1.14 -2.09)"><ellipse cx="28.05" cy="40.21" rx="0.71" ry="0.7" style="fill:none"/></clipPath><clipPath id="0aa610a0-3779-4589-936a-d0080fc71c7f" transform="translate(-1.14 -2.09)"><circle cx="25.58" cy="21.52" r="0.18" style="fill:none"/></clipPath><clipPath id="be639323-3cad-4270-b4c9-b741085e35a6" transform="translate(-1.14 -2.09)"><path d="M47.29,30.42A23.07,23.07,0,0,0,24.75,2.7,22.88,22.88,0,0,0,12.63,6.15h.1a1.83,1.83,0,0,0-2,.29l-4.2,3.79a1.83,1.83,0,0,0-.43,2.13v-.11A23,23,0,1,0,43.7,38.82l-.12,0a1.83,1.83,0,0,0,2.21-1l2.3-5.17a1.83,1.83,0,0,0-.86-2.39Z" style="fill:none;clip-rule:evenodd"/></clipPath><clipPath id="47fe8efc-b43a-4a8d-8bfa-43b347bc18c1" transform="translate(-1.14 -2.09)"><path d="M47.19,30.4A23,23,0,0,0,24.75,2.8,22.77,22.77,0,0,0,12.69,6.24a1.72,1.72,0,0,0-1.89.28L6.59,10.3a1.72,1.72,0,0,0-.41,2A22.92,22.92,0,1,0,43.61,38.76a1.72,1.72,0,0,0,2.08-.95L48,32.64A1.72,1.72,0,0,0,47.19,30.4ZM0,1H50V50.53H0Z" style="fill:none;clip-rule:evenodd"/></clipPath><clipPath id="daf65286-0377-4b78-a1f8-25b37b21a158" transform="translate(-1.14 -2.09)"><path d="M47.36,30.36a1.72,1.72,0,0,1,.8,2.24l-2.3,5.17a1.72,1.72,0,0,1-2.05,1,23.08,23.08,0,0,1-1.59,2A22.83,22.83,0,0,1,10,43C37.67,56.3,52.61,23.13,40,8.55A22.82,22.82,0,0,1,47.36,30.36Z" style="fill:none;clip-rule:evenodd"/></clipPath><clipPath id="2ebb584d-4510-400d-8d97-1675601dc0b7" transform="translate(-1.14 -2.09)"><ellipse cx="33.01" cy="19.25" rx="4.43" ry="4.43" style="fill:none"/></clipPath><clipPath id="3d062f2d-e728-4328-a727-d9325116aff8" transform="translate(-1.14 -2.09)"><path d="M33,23.57a4.33,4.33,0,1,0-4.32-4.33A4.32,4.32,0,0,0,33,23.57Zm-6.17-10.5H39.18V25.42H26.83Z" style="fill:none;clip-rule:evenodd"/></clipPath><clipPath id="e21835f4-9920-49ca-9a7c-0c9ed1d90cfa" transform="translate(-1.14 -2.09)"><ellipse cx="18.16" cy="26.46" rx="3.3" ry="3.3" style="fill:none"/></clipPath><clipPath id="2d6091af-e088-44be-aea3-c9a134f10128" transform="translate(-1.14 -2.09)"><path d="M18.16,29.66A3.2,3.2,0,1,0,15,26.46,3.19,3.19,0,0,0,18.16,29.66Zm-5-8.25H23.21v10.1H13.12Z" style="fill:none;clip-rule:evenodd"/></clipPath><clipPath id="f4dea43e-4a77-4181-b363-1e0b56f71f08" transform="translate(-1.14 -2.09)"><ellipse cx="38.44" cy="35.2" rx="3.19" ry="3.2" style="fill:none"/></clipPath><clipPath id="6efcd3f4-c971-4a55-8dce-0896446151b9" transform="translate(-1.14 -2.09)"><circle cx="16.7" cy="38.9" r="1.6" style="fill:none"/></clipPath><clipPath id="62719e39-667b-47e9-aa85-316b59f9a9d9" transform="translate(-1.14 -2.09)"><path d="M16.7,40.43a1.53,1.53,0,1,0-1.53-1.53A1.53,1.53,0,0,0,16.7,40.43Zm-3.24-4.77h6.47v6.48H13.46Z" style="fill:none;clip-rule:evenodd"/></clipPath><clipPath id="d82e524b-f6cb-4fbb-8815-356acd5e7b1e" transform="translate(-1.14 -2.09)"><circle cx="20.39" cy="17.56" r="0.92" style="fill:none"/></clipPath><clipPath id="6df9547c-2ffc-40b5-839c-7e8c23eec0ae" transform="translate(-1.14 -2.09)"><path d="M20.39,18.41a.85.85,0,1,0-.85-.85A.85.85,0,0,0,20.39,18.41ZM17.83,15h5.11v5.12H17.83Z" style="fill:none;clip-rule:evenodd"/></clipPath><clipPath id="65a0798c-8420-405a-a268-99ef6806e3be" transform="translate(-1.14 -2.09)"><circle cx="36.26" cy="23.49" r="1.09" style="fill:none"/></clipPath><clipPath id="7fbd117a-480b-4d22-85b4-25d8004b9311" transform="translate(-1.14 -2.09)"><path d="M36.26,24.51a1,1,0,1,0-1-1A1,1,0,0,0,36.26,24.51Zm-2.73-3.75H39v5.46H33.54Z" style="fill:none;clip-rule:evenodd"/></clipPath><clipPath id="7a837f34-fc9f-4bfe-835d-3a7351961757" transform="translate(-1.14 -2.09)"><circle cx="21.61" cy="37.65" r="0.75" style="fill:none"/></clipPath><clipPath id="87799dd2-f3e1-4f1e-a6f9-4d52697701ed" transform="translate(-1.14 -2.09)"><path d="M21.61,38.33a.68.68,0,1,0-.68-.68A.68.68,0,0,0,21.61,38.33Zm-2.39-3.07H24V40H19.23Z" style="fill:none;clip-rule:evenodd"/></clipPath><clipPath id="21c3170b-9369-4411-b5e7-851eb584cb73" transform="translate(-1.14 -2.09)"><circle cx="16.25" cy="32.29" r="0.75" style="fill:none"/></clipPath><clipPath id="ac5d90be-05fe-4cef-a18f-69c05bfa1c90" transform="translate(-1.14 -2.09)"><path d="M16.25,33a.68.68,0,1,0-.68-.68A.68.68,0,0,0,16.25,33ZM13.86,29.9h4.78v4.78H13.86Z" style="fill:none;clip-rule:evenodd"/></clipPath></defs><title>moonmail-logo</title><path id="d138c1cc-45f9-404d-a85c-1b841723a9ce" data-name="mm-title" d="M74.82,30.26,66.94,19V39h-3V12.48h1.79L75.25,26l9.2-13.53H86.4V39H83.28V19l-7.41,11Zm25.78,9.24a7.44,7.44,0,0,1-6.28-2.85,11.7,11.7,0,0,1-2.11-7.22,11,11,0,0,1,2.3-7.06A8,8,0,0,1,101,19.58a7.49,7.49,0,0,1,6.42,2.85,11.8,11.8,0,0,1,2.13,7.25,10.7,10.7,0,0,1-2.38,7.08,8.14,8.14,0,0,1-6.55,2.75Zm5.85-9.83a10.48,10.48,0,0,0-1.23-5.34,4.42,4.42,0,0,0-4.15-2.11,4.83,4.83,0,0,0-4.27,2,9.12,9.12,0,0,0-1.42,5.17,10.86,10.86,0,0,0,1.17,5.38,4.3,4.3,0,0,0,4.1,2.07,5,5,0,0,0,4.35-2,8.86,8.86,0,0,0,1.46-5.23Zm15.33,9.83a7.44,7.44,0,0,1-6.28-2.85,11.7,11.7,0,0,1-2.11-7.22,11,11,0,0,1,2.3-7.06,8,8,0,0,1,6.47-2.81,7.49,7.49,0,0,1,6.42,2.85,11.8,11.8,0,0,1,2.13,7.25,10.7,10.7,0,0,1-2.38,7.08,8.14,8.14,0,0,1-6.55,2.75Zm5.85-9.83a10.48,10.48,0,0,0-1.23-5.34,4.42,4.42,0,0,0-4.15-2.11,4.83,4.83,0,0,0-4.27,2,9.12,9.12,0,0,0-1.42,5.17,10.86,10.86,0,0,0,1.17,5.38,4.3,4.3,0,0,0,4.1,2.07,5,5,0,0,0,4.35-2,8.86,8.86,0,0,0,1.46-5.23Zm10.92-6.86a10.19,10.19,0,0,1,3.12-2.32,8.06,8.06,0,0,1,3.59-1,5.86,5.86,0,0,1,4.8,1.89,7.2,7.2,0,0,1,1.56,4.74V39h-3.08V26.6a5.12,5.12,0,0,0-.94-3.16,3.47,3.47,0,0,0-2.89-1.29,7.19,7.19,0,0,0-2.94.82,9,9,0,0,0-3,2.26V39H135.7V20.08h1.87Zm30.73,7.45L161.4,19V39h-3V12.48h1.79L169.71,26l9.2-13.53h1.95V39h-3.12V19l-7.41,11Zm20.32,3.35a3.72,3.72,0,0,0,.84,2.3A3.2,3.2,0,0,0,193.15,37a5.73,5.73,0,0,0,3-.82,9.54,9.54,0,0,0,2.34-2V29.91h-5A3.7,3.7,0,0,0,190.59,31a3.77,3.77,0,0,0-1,2.59ZM188,21.25A9.37,9.37,0,0,1,191,20a14.63,14.63,0,0,1,3.16-.47,7.84,7.84,0,0,1,5.32,1.77,5.83,5.83,0,0,1,2,4.62V39H199.7l-.82-1.91a10.17,10.17,0,0,1-2.54,1.64,7.22,7.22,0,0,1-3.12.74,6.49,6.49,0,0,1-4.87-1.66,5.79,5.79,0,0,1-1.6-4.19,5.07,5.07,0,0,1,1.89-4.27,7.84,7.84,0,0,1,4.93-1.46h4.88a9.62,9.62,0,0,0-.74-4q-.74-1.64-3.39-1.64a9.86,9.86,0,0,0-3.16.43q-1.25.43-2.3.9-.2-.59-.43-1.17L188,21.25Zm21.1-4.91a2,2,0,0,1-1.48-.6,2.07,2.07,0,0,1-.59-1.5,1.86,1.86,0,0,1,.57-1.46,2,2,0,0,1,1.5-.6,2.12,2.12,0,0,1,1.5.6,1.93,1.93,0,0,1,.64,1.46,2,2,0,0,1-.64,1.5,2.12,2.12,0,0,1-1.5.6ZM207.54,39V20.08h3.12V39Zm9.28,0V11.9l3.08-.43V39Z" transform="translate(-1.14 -2.09)" style="fill:#4a4a4a"/><g id="83767306-8f20-47de-92a5-e8cc3bf2e8a6" data-name="mm-moon"><g style="clip-path:url(#f4e40146-054b-4104-914a-a0553b03f1e0)"><g style="clip-path:url(#758cb4b6-0d72-4694-9456-ee675d7db17f)"><rect x="28.85" y="25.53" width="2.13" height="2.12" style="fill:#ebf0f9"/></g></g><g style="clip-path:url(#d3bf6553-3972-40af-b425-95173036e2ed)"><g style="clip-path:url(#758cb4b6-0d72-4694-9456-ee675d7db17f)"><rect x="16.48" y="42.47" width="1.95" height="1.95" style="fill:#ebf0f9"/></g></g><g style="clip-path:url(#45e75d32-c452-4558-99bf-f967ae4c5540)"><g style="clip-path:url(#758cb4b6-0d72-4694-9456-ee675d7db17f)"><rect x="17.19" y="4.05" width="2.84" height="2.82" style="fill:#ebf0f9"/></g></g><g style="clip-path:url(#8d7e81cd-e8b1-483a-a16a-a79c91318e23)"><g style="clip-path:url(#758cb4b6-0d72-4694-9456-ee675d7db17f)"><rect x="25.5" y="36.71" width="2.84" height="2.82" style="fill:#ebf0f9"/></g></g><g style="clip-path:url(#0aa610a0-3779-4589-936a-d0080fc71c7f)"><g style="clip-path:url(#758cb4b6-0d72-4694-9456-ee675d7db17f)"><rect x="23.55" y="18.55" width="1.78" height="1.77" style="fill:#b8d4e8"/></g></g><g style="clip-path:url(#be639323-3cad-4270-b4c9-b741085e35a6)"><g style="clip-path:url(#758cb4b6-0d72-4694-9456-ee675d7db17f)"><rect width="47.72" height="47.3" style="fill:#ebf0f9"/></g></g><g style="clip-path:url(#47fe8efc-b43a-4a8d-8bfa-43b347bc18c1)"><g style="clip-path:url(#758cb4b6-0d72-4694-9456-ee675d7db17f)"><path d="M24.75,49.1A23.37,23.37,0,0,1,5.7,12.25,2.14,2.14,0,0,1,6.31,10l4.2-3.79a2.14,2.14,0,0,1,2.14-.44,23.33,23.33,0,0,1,35.44,20,23.59,23.59,0,0,1-.42,4.44,2.14,2.14,0,0,1,.73,2.63L46.09,38a2.15,2.15,0,0,1-2.29,1.25A23.34,23.34,0,0,1,24.75,49.1ZM12,6.5a1.29,1.29,0,0,0-.87.33l-4.2,3.79a1.29,1.29,0,0,0-.31,1.51l.11.23-.15.2a22.49,22.49,0,1,0,36.73,26l.18-.26.3.09a1.29,1.29,0,0,0,1.57-.71l2.3-5.17A1.29,1.29,0,0,0,47,30.78l-.3-.15.07-.32a22.53,22.53,0,0,0-22-27.08A22.4,22.4,0,0,0,12.91,6.6l-.2.12-.21-.1A1.3,1.3,0,0,0,12,6.5Z" transform="translate(-1.14 -2.09)"/></g></g><g style="clip-path:url(#daf65286-0377-4b78-a1f8-25b37b21a158)"><g style="clip-path:url(#758cb4b6-0d72-4694-9456-ee675d7db17f)"><rect x="8.15" y="5.75" width="39.72" height="41.49" style="fill:#b8d4e8"/></g></g><g style="clip-path:url(#2ebb584d-4510-400d-8d97-1675601dc0b7)"><g style="clip-path:url(#758cb4b6-0d72-4694-9456-ee675d7db17f)"><rect x="26.83" y="12.12" width="10.06" height="10.08" style="fill:#b8d4e8"/></g></g><g style="clip-path:url(#3d062f2d-e728-4328-a727-d9325116aff8)"><g style="clip-path:url(#758cb4b6-0d72-4694-9456-ee675d7db17f)"><path d="M33,24a4.75,4.75,0,1,1,4.75-4.75A4.76,4.76,0,0,1,33,24Zm0-8.65a3.9,3.9,0,1,0,3.89,3.9A3.9,3.9,0,0,0,33,15.35Z" transform="translate(-1.14 -2.09)"/></g></g><g style="clip-path:url(#e21835f4-9920-49ca-9a7c-0c9ed1d90cfa)"><g style="clip-path:url(#758cb4b6-0d72-4694-9456-ee675d7db17f)"><rect x="13.12" y="20.46" width="7.81" height="7.82" style="fill:#b8d4e8"/></g></g><g style="clip-path:url(#2d6091af-e088-44be-aea3-c9a134f10128)"><g style="clip-path:url(#758cb4b6-0d72-4694-9456-ee675d7db17f)"><path d="M18.16,30.09a3.62,3.62,0,1,1,3.62-3.62A3.63,3.63,0,0,1,18.16,30.09Zm0-6.39a2.77,2.77,0,1,0,2.77,2.77A2.77,2.77,0,0,0,18.16,23.69Z" transform="translate(-1.14 -2.09)"/></g></g><g style="clip-path:url(#f4dea43e-4a77-4181-b363-1e0b56f71f08)"><g style="clip-path:url(#758cb4b6-0d72-4694-9456-ee675d7db17f)"><rect x="33.39" y="29.2" width="7.81" height="7.82" style="fill:#ebf0f9"/></g></g><g style="clip-path:url(#6efcd3f4-c971-4a55-8dce-0896446151b9)"><g style="clip-path:url(#758cb4b6-0d72-4694-9456-ee675d7db17f)"><rect x="13.32" y="34.57" width="4.48" height="4.48" style="fill:#b8d4e8"/></g></g><g style="clip-path:url(#62719e39-667b-47e9-aa85-316b59f9a9d9)"><g style="clip-path:url(#758cb4b6-0d72-4694-9456-ee675d7db17f)"><path d="M16.7,40.71a1.81,1.81,0,1,1,1.81-1.81A1.81,1.81,0,0,1,16.7,40.71Zm0-3.06a1.24,1.24,0,1,0,1.24,1.24A1.24,1.24,0,0,0,16.7,37.66Z" transform="translate(-1.14 -2.09)"/></g></g><g style="clip-path:url(#d82e524b-f6cb-4fbb-8815-356acd5e7b1e)"><g style="clip-path:url(#758cb4b6-0d72-4694-9456-ee675d7db17f)"><rect x="17.69" y="13.91" width="3.12" height="3.12" style="fill:#b8d4e8"/></g></g><g style="clip-path:url(#6df9547c-2ffc-40b5-839c-7e8c23eec0ae)"><g style="clip-path:url(#758cb4b6-0d72-4694-9456-ee675d7db17f)"><path d="M20.39,18.69a1.13,1.13,0,1,1,1.13-1.13A1.14,1.14,0,0,1,20.39,18.69Zm0-1.7a.56.56,0,1,0,.56.56A.56.56,0,0,0,20.39,17Z" transform="translate(-1.14 -2.09)"/></g></g><g style="clip-path:url(#65a0798c-8420-405a-a268-99ef6806e3be)"><g style="clip-path:url(#758cb4b6-0d72-4694-9456-ee675d7db17f)"><rect x="33.39" y="19.67" width="3.46" height="3.46" style="fill:#fff"/></g></g><g style="clip-path:url(#7fbd117a-480b-4d22-85b4-25d8004b9311)"><g style="clip-path:url(#758cb4b6-0d72-4694-9456-ee675d7db17f)"><path d="M36.26,24.79a1.3,1.3,0,1,1,1.3-1.3A1.31,1.31,0,0,1,36.26,24.79Zm0-2a.73.73,0,1,0,.73.73A.73.73,0,0,0,36.26,22.76Z" transform="translate(-1.14 -2.09)"/></g></g><g style="clip-path:url(#7a837f34-fc9f-4bfe-835d-3a7351961757)"><g style="clip-path:url(#758cb4b6-0d72-4694-9456-ee675d7db17f)"><rect x="19.08" y="34.17" width="2.78" height="2.78" style="fill:#fff"/></g></g><g style="clip-path:url(#87799dd2-f3e1-4f1e-a6f9-4d52697701ed)"><g style="clip-path:url(#758cb4b6-0d72-4694-9456-ee675d7db17f)"><path d="M21.61,38.62a1,1,0,1,1,1-1A1,1,0,0,1,21.61,38.62Zm0-1.36a.39.39,0,1,0,.39.39A.39.39,0,0,0,21.61,37.26Z" transform="translate(-1.14 -2.09)"/></g></g><g style="clip-path:url(#21c3170b-9369-4411-b5e7-851eb584cb73)"><g style="clip-path:url(#758cb4b6-0d72-4694-9456-ee675d7db17f)"><rect x="13.72" y="28.81" width="2.78" height="2.78" style="fill:#fff"/></g></g><g style="clip-path:url(#ac5d90be-05fe-4cef-a18f-69c05bfa1c90)"><g style="clip-path:url(#758cb4b6-0d72-4694-9456-ee675d7db17f)"><path d="M16.25,33.25a1,1,0,1,1,1-1A1,1,0,0,1,16.25,33.25Zm0-1.36a.39.39,0,1,0,.39.39A.39.39,0,0,0,16.25,31.89Z" transform="translate(-1.14 -2.09)"/></g></g></g></svg>